<svg width="148" height="68" viewBox="0 0 148 68" fill="none" xmlns="http://www.w3.org/2000/svg">
<g clip-path="url(#clip0_399_20)">
<path d="M33.8242 67.7211L33.2482 64.9859H29.1414L28.5656 67.7211H24.8594L29.4419 50.1758H32.9477L37.5302 67.7211H33.8242ZM31.1949 55.3255L29.8176 61.8308H32.5721L31.1949 55.3255Z" fill="white"/>
<path d="M45.9701 67.7211L43.791 60.8953H42.6141V67.7211H39.0586V50.1758H44.1419C48.0234 50.1758 49.1 52.1718 49.1 55.5232C49.1 57.3959 48.7997 59.0717 47.0718 60.1312L49.6761 67.7211H45.9701ZM44.1169 53.3303H42.6146V57.7411H44.1169C45.469 57.7411 45.5443 56.5337 45.5443 55.5233C45.5443 54.513 45.469 53.3303 44.1169 53.3303Z" fill="white"/>
<path d="M59.8182 66.6614C58.9166 67.4993 57.8398 67.9182 56.3624 67.9182C54.3591 67.9182 53.3074 67.1297 52.481 66.1687C51.0538 64.4928 51.1539 61.3386 51.1539 58.9729C51.1539 56.6073 51.0538 53.4038 52.481 51.7282C53.3074 50.7672 54.3589 49.9785 56.3624 49.9785C57.8398 49.9785 58.9166 50.3969 59.8182 51.2353C60.7447 52.0978 61.3207 53.4779 61.3949 55.1535H57.8398C57.8148 54.6606 57.7647 54.1678 57.5643 53.7982C57.3641 53.3797 57.0135 53.1327 56.3624 53.1327C55.7114 53.1327 55.3859 53.4291 55.1855 53.8227C54.7604 54.636 54.7097 56.8291 54.7097 58.9484C54.7097 61.0677 54.7598 63.2609 55.1855 64.074C55.3859 64.4684 55.7114 64.7639 56.3624 64.7639C57.0135 64.7639 57.3891 64.4928 57.5895 64.074C57.7898 63.7042 57.8398 63.2115 57.8648 62.7187H61.4208C61.3455 64.3943 60.7447 65.7989 59.8182 66.6614Z" fill="white"/>
<path d="M70.9099 67.7211L70.3341 64.9859H66.2273L65.6514 67.7211H61.9453L66.5278 50.1758H70.0337L74.6162 67.7211H70.9099ZM68.2808 55.3255L66.9034 61.8308H69.6581L68.2808 55.3255Z" fill="white"/>
<path d="M84.033 66.6614C83.1314 67.4993 82.0546 67.9182 80.5773 67.9182C78.5739 67.9182 77.5223 67.1297 76.6958 66.1687C75.2686 64.4928 75.3687 61.3386 75.3687 58.9729C75.3687 56.6073 75.2686 53.4038 76.6958 51.7282C77.5223 50.7672 78.5737 49.9785 80.5773 49.9785C82.0546 49.9785 83.1314 50.3969 84.033 51.2353C84.9596 52.0978 85.5355 53.4779 85.6098 55.1535H82.0546C82.0297 54.6606 81.9795 54.1678 81.7793 53.7982C81.579 53.3797 81.2284 53.1327 80.5773 53.1327C79.9262 53.1327 79.6008 53.4291 79.4004 53.8227C78.9752 54.636 78.9247 56.8291 78.9247 58.9484C78.9247 61.0677 78.9747 63.2609 79.4004 64.074C79.6008 64.4684 79.9262 64.7639 80.5773 64.7639C81.2284 64.7639 81.6039 64.4928 81.8043 64.074C82.0047 63.7042 82.0546 63.2115 82.0796 62.7187H85.6356C85.5603 64.3943 84.9596 65.7989 84.033 66.6614Z" fill="white"/>
<path d="M94.2744 67.7211V60.3777H91.3195V67.7211H87.7637V50.1758H91.3195V57.2235H94.2744V50.1758H97.8295V67.7211H94.2744Z" fill="white"/>
<path d="M109.198 66.1687C108.372 67.1297 107.27 67.9182 105.267 67.9182C103.264 67.9182 102.212 67.1297 101.385 66.1687C99.9579 64.4928 100.058 61.314 100.058 58.9484C100.058 56.5827 99.9579 53.4043 101.385 51.7282C102.212 50.7672 103.263 49.9785 105.267 49.9785C107.27 49.9785 108.372 50.7672 109.198 51.7282C110.625 53.4038 110.525 56.5827 110.525 58.9484C110.525 61.314 110.625 64.4928 109.198 66.1687ZM106.494 53.8227C106.293 53.4286 105.918 53.1327 105.267 53.1327C104.616 53.1327 104.29 53.4291 104.09 53.8227C103.665 54.636 103.614 56.8291 103.614 58.9484C103.614 61.0677 103.664 63.2609 104.09 64.074C104.29 64.4684 104.616 64.7639 105.267 64.7639C105.918 64.7639 106.293 64.4675 106.494 64.074C106.919 63.2609 106.969 61.0677 106.969 58.9484C106.969 56.8291 106.919 54.636 106.494 53.8227Z" fill="white"/>
<path d="M120.091 67.7211L116.31 59.1456V67.7211H112.754V50.1758H115.859L119.565 58.7523V50.1758H123.121V67.7211H120.091Z" fill="white"/>
<path d="M22.6688 40.3925C20.4863 42.4208 17.8799 43.4348 14.3035 43.4348C9.45406 43.4348 6.90824 41.5261 4.9079 39.1997C1.45323 35.1433 1.69505 27.5077 1.69505 21.7807C1.69505 16.0538 1.45323 8.29913 4.9079 4.24325C6.90824 1.91702 9.45406 0.0078125 14.3035 0.0078125C17.8799 0.0078125 20.4865 1.02195 22.6688 3.05024C24.9117 5.13797 26.3059 8.47852 26.4877 12.5344H17.8799C17.8195 11.3419 17.699 10.1489 17.2131 9.25417C16.7284 8.24003 15.8794 7.64325 14.3035 7.64325C12.7277 7.64325 11.9397 8.35945 11.4544 9.31362C10.424 11.2821 10.3029 16.5913 10.3029 21.7215C10.3029 26.8516 10.424 32.1603 11.4544 34.1293C11.9397 35.0833 12.7273 35.7992 14.3035 35.7992C15.8798 35.7992 16.7889 35.1433 17.274 34.1293C17.7587 33.2341 17.8799 32.0412 17.9405 30.8484H26.5483C26.3665 34.9044 24.9117 38.305 22.6688 40.3925Z" fill="white"/>
<path d="M76.3161 40.2735C74.3764 42.1228 71.103 43.4349 66.9205 43.4349C62.6773 43.4349 59.5252 42.242 57.5851 40.3328C55.4638 38.2452 54.7363 35.2624 54.7363 30.9077H63.3439C63.3439 32.6381 63.4653 33.8907 64.2531 34.7854C64.7382 35.3222 65.5868 35.7992 66.9205 35.7992C68.2542 35.7992 69.1026 35.4413 69.6488 34.7256C70.2551 34.0098 70.4974 32.8762 70.4974 31.1466C70.4974 27.09 69.8306 26.3744 66.7393 25.1217L61.2827 22.9144C56.9184 21.1249 55.0997 18.8583 55.0997 12.2367C55.0997 8.29972 56.3726 5.01896 58.9795 2.81181C61.0407 1.08182 63.6471 0.126953 66.9205 0.126953C70.7392 0.126953 73.5287 1.08147 75.4066 2.81181C77.7706 4.95917 78.7406 8.35951 78.7406 12.6546H70.1332C70.1332 11.1631 70.1332 9.79103 69.4056 8.83651C68.9208 8.18047 68.1934 7.76274 66.9205 7.76274C65.7078 7.76274 64.9202 8.24009 64.4349 8.89596C63.8894 9.61181 63.7077 10.5062 63.7077 11.9384C63.7077 14.6232 64.1926 15.3982 66.678 16.4122L72.0729 18.5595C77.5283 20.7667 79.1047 23.1529 79.1047 30.8481C79.1047 35.1435 78.5592 38.1263 76.3161 40.2735Z" fill="white"/>
<path d="M81.4668 42.9574V0.484375H90.0746V42.9574H81.4668Z" fill="white"/>
<path d="M111.474 42.9574L102.321 22.1977V42.9574H93.7129V0.484375H101.23L110.201 21.2432V0.484375H118.809V42.9574H111.474Z" fill="white"/>
<path d="M143.298 39.1997C141.298 41.5261 138.631 43.4348 133.781 43.4348C128.932 43.4348 126.386 41.5261 124.386 39.1997C120.932 35.1433 121.174 27.4479 121.174 21.7215C121.174 15.9951 120.931 8.29913 124.386 4.24325C126.386 1.91702 128.932 0.0078125 133.781 0.0078125C138.631 0.0078125 141.298 1.91702 143.298 4.24325C146.753 8.29965 146.511 15.9947 146.511 21.7215C146.511 27.4482 146.754 35.1433 143.298 39.1997ZM136.752 9.31362C136.268 8.35945 135.358 7.64325 133.782 7.64325C132.206 7.64325 131.418 8.35945 130.933 9.31362C129.902 11.2821 129.781 16.5913 129.781 21.7215C129.781 26.8516 129.902 32.1603 130.933 34.1293C131.418 35.0833 132.206 35.7992 133.782 35.7992C135.358 35.7992 136.268 35.0833 136.752 34.1293C137.783 32.1603 137.904 26.8518 137.904 21.7215C137.904 16.5911 137.782 11.2821 136.752 9.31362Z" fill="white"/>
<path d="M44.3707 0.484375H35.8846L24.791 42.9574H33.7625L35.1568 36.3357H45.0979L46.4922 42.9574H55.4637L44.3707 0.484375ZM35.5168 32.0949L33.9827 32.6726V18.657C33.8942 16.2713 35.2452 14.8984 37.0003 14.6747C35.9207 15.6935 35.5168 16.4878 35.5168 17.5946V32.0949ZM38.0421 32.3433L36.5078 32.9334V18.5079C36.4132 16.0539 37.7643 14.6444 39.5256 14.4139C38.446 15.4575 38.0421 16.2776 38.0421 17.4145V32.3433ZM40.4221 16.9361V32.3246L38.8942 32.9327V18.0668C38.7993 15.5321 40.1569 14.0783 41.912 13.8424C40.7126 14.6444 40.4221 15.7619 40.4221 16.9361ZM46.2238 21.7943C46.2238 22.8567 45.0496 24.534 42.3034 24.4906C44.5508 23.5215 44.7338 22.2789 44.7781 20.6016V15.1531C44.7781 13.221 43.3387 13.5688 43.023 13.5254C44.6392 12.8234 46.1733 14.0349 46.2238 15.4083V21.7943Z" fill="white"/>
</g>
<defs>
<clipPath id="clip0_399_20">
<rect width="148" height="68" fill="white"/>
</clipPath>
</defs>
</svg>
